<?xml version="1.0" encoding="utf-8"?>
<!-- Generator: Adobe Illustrator 23.0.1, SVG Export Plug-In . SVG Version: 6.00 Build 0)  -->
<svg version="1.1" id="Layer_1" xmlns="http://www.w3.org/2000/svg" xmlns:xlink="http://www.w3.org/1999/xlink" x="0px" y="0px"
	 viewBox="0 0 386.96 200" style="enable-background:new 0 0 386.96 200;" xml:space="preserve">
<style type="text/css">
	.st0{fill:#2CD649;}
</style>
<g>
	<g>
		<path class="st0" d="M116.97,74.23c-11.17,0-20.23,9.06-20.23,20.23c0,11.17,9.06,20.23,20.23,20.23
			c11.17,0,20.23-9.06,20.23-20.23C137.21,83.29,128.15,74.23,116.97,74.23z"/>
		<path class="st0" d="M89.94,125.15l-0.18,0c-2.04-0.04-3.94-0.87-5.35-2.35c-1.42-1.47-2.17-3.42-2.12-5.46
			c0.08-4.13,3.52-7.48,7.65-7.48c4.39,0.1,7.74,3.61,7.65,7.83C97.5,121.81,94.07,125.15,89.94,125.15"/>
		<path class="st0" d="M148.6,0c-29.22,0-52.93,23.7-52.93,52.93c0,8.23,1.88,16.03,5.24,22.98c4.31-3.74,9.93-6.01,16.06-6.01
			c13.54,0,24.56,11.02,24.56,24.56c0,3.77-0.86,7.34-2.38,10.54c3.07,0.55,6.22,0.86,9.44,0.86c29.22,0,52.93-23.7,52.93-52.93
			C201.52,23.7,177.82,0,148.6,0z"/>
	</g>
	<path class="st0" d="M61.18,153.25c0-4.59-3.46-7.58-7.68-7.58s-7.69,3-7.69,7.58v23.8c0,1.31-0.84,2.16-2.24,2.16H32.89
		c-1.41,0-2.25-0.85-2.25-2.16v-23.8c0-4.59-3.56-7.58-7.69-7.58c-4.12,0-7.77,3-7.77,7.58v23.8c0,1.31-0.84,2.16-2.26,2.16H2.25
		c-1.4,0-2.25-0.85-2.25-2.16V154c0-13.49,9.56-22.86,23.14-22.86c6.08,0,11.52,2.16,15.36,6.1c3.93-3.94,9.27-6.1,15.17-6.1
		c13.68,0,22.67,8.99,22.67,22.86v23.05c0,1.31-0.84,2.16-2.24,2.16H63.42c-1.4,0-2.24-0.85-2.24-2.16V153.25z"/>
	<path class="st0" d="M148.48,177.05c0,1.31-0.84,2.16-2.24,2.16h-10.59c-1.4,0-2.24-0.84-2.24-2.16v-23.61
		c0-4.49-2.99-7.78-7.31-7.78c-4.12,0-7.49,3-7.49,7.5v23.89c0,1.31-0.85,2.16-2.24,2.16h-10.5c-1.4,0-2.24-0.84-2.24-2.16V153.9
		c0-13.39,8.99-22.75,22.48-22.75c13.77,0,22.38,8.98,22.38,22.75V177.05z"/>
	<path class="st0" d="M82.35,133.86c0-1.31,0.84-2.16,2.25-2.16h10.68c1.4,0,2.24,0.85,2.24,2.16v43.18c0,1.32-0.84,2.15-2.24,2.15
		H84.59c-1.41,0-2.25-0.83-2.25-2.15V133.86z"/>
	<path class="st0" d="M371.7,153.25c0-4.59-3.47-7.58-7.69-7.58c-4.21,0-7.68,3-7.68,7.58v23.8c0,1.31-0.84,2.16-2.24,2.16H343.4
		c-1.41,0-2.25-0.85-2.25-2.16v-23.8c0-4.59-3.56-7.58-7.68-7.58c-4.12,0-7.78,3-7.78,7.58v23.8c0,1.31-0.83,2.16-2.24,2.16h-10.77
		c-1.41,0-2.25-0.85-2.25-2.16V154c0-13.49,9.64-22.85,23.23-22.85c6.08,0,11.52,2.15,15.36,6.09c3.93-3.94,9.27-6.09,15.17-6.09
		c13.67,0,22.76,8.98,22.76,22.85v23.05c0,1.31-0.84,2.16-2.25,2.16h-10.77c-1.4,0-2.24-0.85-2.24-2.16V153.25z"/>
	<path class="st0" d="M304.06,177.42c0,12.55-9.37,22.58-23.8,22.58c-18.35,0-22.19-14.23-22.19-18.17c0-1.41,0.84-2.24,2.25-2.24
		h9.27c1.03,0,1.78,0.74,1.97,1.68c0.47,2.34,2.8,5.9,8.9,5.9c6.09,0,8.91-4.02,8.91-9.37v-2.24c0,0-3.28,2.72-9.94,2.72
		c-13.3,0-20.32-8.53-20.32-22.4v-22.1c0-1.31,0.84-2.06,2.25-2.06h10.12c1.41,0,2.24,0.84,2.24,2.15v22.58
		c0,4.59,2.16,8.52,7.58,8.52c5.53,0,7.69-3.93,7.69-8.52v-22.67c0-1.31,0.84-2.06,2.25-2.06h10.59c1.4,0,2.24,0.84,2.24,2.15
		V177.42z"/>
	<path class="st0" d="M199.35,107.73h-10.68c-1.41,0-2.25,0.85-2.25,2.15v23.89c0,0-4.22-2.16-10.22-2.16
		c-13.39,0-23.23,10.21-23.23,24.08c0,14.04,10.21,24.17,24.36,24.17c14.14,0,24.25-10.13,24.25-24.45v-45.53
		C201.59,108.58,200.76,107.73,199.35,107.73 M177.34,166.37c-6.09,0-10.23-4.31-10.23-10.59c0-6.27,4.13-10.58,10.23-10.58
		c6.08,0,10.2,4.31,10.2,10.58C187.54,162.06,183.42,166.37,177.34,166.37"/>
	<path class="st0" d="M229.96,131.05c-13.78,0-23.88,10.02-23.88,23.71c0,13.49,9.74,23.6,22.77,23.6c6.27,0,10.02-2.62,10.02-2.62
		v1.31c0,5.35-2.44,10.13-9.08,10.13c-6.56,0-8.62-3.57-9.09-5.91c-0.19-0.94-0.94-1.68-1.97-1.68h-9.37c-1.4,0-2.24,0.84-2.24,2.24
		c0,3.93,3.37,18.17,22.68,18.17c15.74,0,23.98-11.06,23.98-23.14v-22.39C253.76,141.45,244.57,131.05,229.96,131.05 M229.96,164.88
		c-5.72,0-9.83-4.32-9.83-10.23c0-6.08,4.12-10.2,9.83-10.2c5.71,0,9.83,4.3,9.83,10.2C239.79,160.56,235.67,164.88,229.96,164.88"
		/>
</g>
</svg>
